<svg xmlns="http://www.w3.org/2000/svg" xmlns:svg="http://www.w3.org/2000/svg" id="svg5" width="22.767" height="16.23" version="1.1" viewBox="0 0 6.024 4.294" xml:space="preserve"><path style="display:inline;fill:#000;fill-opacity:.601036;stroke:none;stroke-width:0;stroke-dasharray:none;paint-order:stroke fill markers" id="path1078" d="m 93.085237,41.839504 c 0,0.54695 -0.292031,0.990341 -0.652269,0.990341 -0.360238,0 -0.652269,-0.443391 -0.652269,-0.990341 0,-0.54695 0.292031,-0.99034 0.652269,-0.99034 0.360238,0 0.652269,0.44339 0.652269,0.99034 z m 0.301475,0.08282 c -0.279439,0.470179 -0.254928,1.000534 0.05475,1.184581 0.309675,0.184048 0.787245,-0.04791 1.066684,-0.518086 0.27944,-0.470179 0.254929,-1.000534 -0.05475,-1.184581 -0.309675,-0.184048 -0.787246,0.04791 -1.066685,0.518086 z" class="UnoptimicedTransforms" transform="matrix(0.72856059,-0.2057224,0.198808,0.78188858,-72.908358,-12.888855)"/><path style="display:inline;opacity:1;fill:#000;fill-opacity:.601036;stroke:none;stroke-width:0;stroke-dasharray:none;paint-order:stroke fill markers" id="path1078-1-7-1" d="m 56.240921,86.118347 c 0,0.431723 -0.251042,0.781703 -0.560719,0.781703 -0.309676,0 -0.560718,-0.34998 -0.560718,-0.781703 0,-0.431722 0.251042,-0.781703 0.560718,-0.781703 0.309677,0 0.560719,0.349981 0.560719,0.781703 z m 2.238421,2.44102 c -0.430107,-0.03731 -0.800475,0.182541 -0.82724,0.491059 -0.02676,0.308518 0.300209,0.588869 0.730316,0.626182 0.430107,0.03731 0.800475,-0.182541 0.82724,-0.491059 0.02677,-0.308517 -0.300208,-0.588869 -0.730316,-0.626182 z" class="UnoptimicedTransforms" transform="matrix(0.4999764,-0.60629256,0.54461622,0.55998235,-72.908358,-12.888855)"/><path id="path21805" style="display:inline;fill:#000;fill-opacity:.601036;stroke:none;stroke-width:0;stroke-linecap:butt;stroke-linejoin:miter;stroke-opacity:1;stroke-dasharray:none" d="m 99.026401,14.305896 c 0.355361,0.414288 0.496731,0.948433 0.278481,1.18832 -0.382812,0.420713 -0.719092,0.01012 -1.362708,5.21e-4 h -0.04315 c -0.643617,0.0096 -0.980457,0.420192 -1.36327,-5.21e-4 -0.222872,-0.244968 -0.07061,-0.796711 0.301455,-1.214403 l 0.109263,-0.112673 c 0.257137,-0.243096 0.594252,-0.417899 0.973844,-0.416799 0.392105,-0.0011 0.739509,0.185676 0.999618,0.441316 z" transform="matrix(0.92225932,0,0,0.99063318,-86.972727,-11.942057)"/></svg>