<svg xmlns="http://www.w3.org/2000/svg" xmlns:svg="http://www.w3.org/2000/svg" id="svg5" width="22.767" height="16.23" version="1.1" viewBox="0 0 6.024 4.294" xml:space="preserve"><g id="g3088" transform="rotate(152.51695,53.914281,-2.0496921)" style="opacity:1;fill:none;fill-opacity:.601036;stroke:#000;stroke-width:.002;stroke-dasharray:none;stroke-opacity:1"><g id="g79" transform="matrix(0.26458333,0,0,0.26458334,99.720212,18.666625)" style="display:none;fill:none;fill-opacity:.601036;stroke:#000;stroke-width:.00755906;stroke-dasharray:none;stroke-opacity:1"><path d="m 0,0 c 0,0.8 -0.64,1.44 -1.44,1.44 -0.96,0 -1.6,-0.64 -1.6,-1.44 0,-0.96 0.64,-1.6 1.6,-1.6 0.8,0 1.44,0.64 1.44,1.6 z" style="fill:none;fill-opacity:.601036;fill-rule:nonzero;stroke:#000;stroke-width:.00755906;stroke-dasharray:none;stroke-opacity:1" id="path81"/><path d="m 0,0 c 0,0.8 -0.64,1.44 -1.44,1.44 -0.96,0 -1.6,-0.64 -1.6,-1.44 0,-0.96 0.64,-1.6 1.6,-1.6 0.8,0 1.44,0.64 1.44,1.6 z" style="opacity:1;fill:none;fill-opacity:.601036;fill-rule:nonzero;stroke:#000;stroke-width:.00755906;stroke-dasharray:none;stroke-opacity:1" id="path77" transform="translate(-2.6728936e-8,-4.7999997)"/><path d="m 0,0 c 0,0.8 -0.64,1.44 -1.44,1.44 -0.96,0 -1.6,-0.64 -1.6,-1.44 0,-0.96 0.64,-1.6 1.6,-1.6 0.8,0 1.44,0.64 1.44,1.6 z" style="opacity:1;fill:none;fill-opacity:.601036;fill-rule:nonzero;stroke:#000;stroke-width:.00755906;stroke-dasharray:none;stroke-opacity:1" id="path73" transform="translate(4.7999924)"/><path d="m 0,0 c 0,0.8 -0.64,1.44 -1.44,1.44 -0.96,0 -1.6,-0.64 -1.6,-1.44 0,-0.96 0.64,-1.6 1.6,-1.6 0.8,0 1.44,0.64 1.44,1.6 z" style="opacity:1;fill:none;fill-opacity:.601036;fill-rule:nonzero;stroke:#000;stroke-width:.00755906;stroke-dasharray:none;stroke-opacity:1" id="path69" transform="translate(4.7999924,-4.7999998)"/><path d="m 0,0 c 0,0.8 -0.64,1.44 -1.44,1.44 -0.96,0 -1.6,-0.64 -1.6,-1.44 0,-0.96 0.64,-1.6 1.6,-1.6 0.8,0 1.44,0.64 1.44,1.6 z" style="opacity:1;fill:none;fill-opacity:.601036;fill-rule:nonzero;stroke:#000;stroke-width:.00755906;stroke-dasharray:none;stroke-opacity:1" id="path65" transform="translate(9.6000681)"/><path d="m 0,0 c 0,0.8 -0.64,1.44 -1.44,1.44 -0.96,0 -1.6,-0.64 -1.6,-1.44 0,-0.96 0.64,-1.6 1.6,-1.6 0.8,0 1.44,0.64 1.44,1.6 z" style="opacity:1;fill:none;fill-opacity:.601036;fill-rule:nonzero;stroke:#000;stroke-width:.00755906;stroke-dasharray:none;stroke-opacity:1" id="path61" transform="translate(9.6000681,-4.7999996)"/></g><g id="g91" transform="matrix(0.26458333,0,0,0.26458334,103.65722,19.047625)" style="fill:none;fill-opacity:.601036;stroke:#000;stroke-width:.00755906;stroke-dasharray:none;stroke-opacity:1"><path d="M 0,0 C 0,0.96 -0.96,1.92 -1.92,1.92 -3.04,1.92 -4,0.96 -4,0 -4,-1.12 -3.04,-2.08 -1.92,-2.08 -0.96,-2.08 0,-1.12 0,0 Z" style="fill:none;fill-opacity:.601036;fill-rule:nonzero;stroke:#000;stroke-width:.00755906;stroke-dasharray:none;stroke-opacity:1" id="path93"/><path d="M 0,0 C 0,0.96 -0.96,1.92 -1.92,1.92 -3.04,1.92 -4,0.96 -4,0 -4,-1.12 -3.04,-2.08 -1.92,-2.08 -0.96,-2.08 0,-1.12 0,0 Z" style="opacity:1;fill:none;fill-opacity:.601036;stroke:#000;stroke-width:.00755906;stroke-dasharray:none;stroke-opacity:1;fill-rule:nonzero" id="path89" transform="translate(-2.1017042e-8,-7.6799995)"/><path d="M 0,0 C 0,0.96 -0.96,1.92 -1.92,1.92 -3.04,1.92 -4,0.96 -4,0 -4,-1.12 -3.04,-2.08 -1.92,-2.08 -0.96,-2.08 0,-1.12 0,0 Z" style="opacity:1;fill:none;fill-opacity:.601036;stroke:#000;stroke-width:.00755906;stroke-dasharray:none;stroke-opacity:1;fill-rule:nonzero" id="path85" transform="translate(-19.200031,-3.8399998)"/></g></g><path style="fill:#000;fill-opacity:.601036;stroke:none;stroke-width:0;stroke-dasharray:none;paint-order:stroke fill markers" id="path1078" d="m 93.085237,41.839504 c 0,0.54695 -0.292031,0.990341 -0.652269,0.990341 -0.360238,0 -0.652269,-0.443391 -0.652269,-0.990341 0,-0.54695 0.292031,-0.99034 0.652269,-0.99034 0.360238,0 0.652269,0.44339 0.652269,0.99034 z m 0.301475,0.08282 c -0.279439,0.470179 -0.254928,1.000534 0.05475,1.184581 0.309675,0.184048 0.787245,-0.04791 1.066684,-0.518086 0.27944,-0.470179 0.254929,-1.000534 -0.05475,-1.184581 -0.309675,-0.184048 -0.787246,0.04791 -1.066685,0.518086 z" class="UnoptimicedTransforms" transform="matrix(0.72856059,-0.2057224,0.198808,0.78188858,-72.908358,-12.888855)"/><path style="opacity:1;fill:#000;fill-opacity:.601036;stroke:none;stroke-width:0;stroke-dasharray:none;paint-order:stroke fill markers" id="path1078-1-7-1" d="m 56.240921,86.118347 c 0,0.431723 -0.251042,0.781703 -0.560719,0.781703 -0.309676,0 -0.560718,-0.34998 -0.560718,-0.781703 0,-0.431722 0.251042,-0.781703 0.560718,-0.781703 0.309677,0 0.560719,0.349981 0.560719,0.781703 z m 2.238421,2.44102 c -0.430107,-0.03731 -0.800475,0.182541 -0.82724,0.491059 -0.02676,0.308518 0.300209,0.588869 0.730316,0.626182 0.430107,0.03731 0.800475,-0.182541 0.82724,-0.491059 0.02677,-0.308517 -0.300208,-0.588869 -0.730316,-0.626182 z" class="UnoptimicedTransforms" transform="matrix(0.4999764,-0.60629256,0.54461622,0.55998235,-72.908358,-12.888855)"/><path id="path21805" style="display:none;fill:#000;fill-opacity:.601036;stroke:none;stroke-width:.264583px;stroke-linecap:butt;stroke-linejoin:miter;stroke-opacity:1" d="m 99.026401,14.305896 c 0.355361,0.414288 0.496731,0.948433 0.278481,1.18832 -0.382812,0.420713 -0.719092,0.01012 -1.362708,5.21e-4 h -0.04315 c -0.643617,0.0096 -0.980457,0.420192 -1.36327,-5.21e-4 -0.222872,-0.244968 -0.07061,-0.796711 0.301455,-1.214403 l 0.109263,-0.112673 c 0.257137,-0.243096 0.594252,-0.417899 0.973844,-0.416799 0.392105,-0.0011 0.739509,0.185676 0.999618,0.441316 z" transform="matrix(0.92225932,0,0,0.99063318,-86.972727,-11.942057)"/><path style="display:none;fill:none;stroke:#fff;stroke-width:.15;stroke-linecap:butt;stroke-linejoin:miter;stroke-dasharray:none;stroke-opacity:1" id="path21780" d="m 2.2981268,2.1343744 c 0,0 0.142382,0.068056 0.4532736,0.376089 0.3108916,0.3080327 0.3136573,0.7366 0.3808532,1.00211 0.067196,0.26551 0.063303,0.4040858 0.063303,0.4040858 M 4.3722974,2.1343744 c 0,0 -0.142382,0.068056 -0.4532736,0.376089 -0.3108916,0.3080327 -0.3136573,0.7366 -0.3808532,1.00211 -0.067196,0.26551 -0.063303,0.4040858 -0.063303,0.4040858" class="UnoptimicedTransforms"/><g id="g22683" style="display:inline;stroke-width:0;stroke-dasharray:none"><path style="fill:#000;fill-opacity:.601036;stroke:none;stroke-width:0;stroke-linecap:butt;stroke-linejoin:miter;stroke-opacity:1;stroke-dasharray:none" id="path22651" d="m 98.899099,14.399996 c -0.0948,0.07112 -0.186169,0.147241 -0.271051,0.22973 -0.06283,0.06106 -0.155683,0.169668 -0.197594,0.246539 -0.08294,0.152135 -0.123595,0.324485 -0.157909,0.495756 -0.0172,0.08586 0.03965,0.167468 0.124058,0.191021 0.138523,0.03865 0.274946,0.08997 0.416104,0.110381 0.08306,0.01201 0.224804,0.0027 0.30411,-0.03373 0.07085,-0.03254 0.134753,-0.08154 0.184554,-0.141481 0.05575,-0.0671 0.101828,-0.205087 0.105941,-0.292455 0.008,-0.169024 -0.0447,-0.338683 -0.117818,-0.49398 -0.03732,-0.07927 -0.108694,-0.202506 -0.159519,-0.273912 -0.0013,-0.0018 -0.0026,-0.0037 -0.004,-0.0055 -0.05109,-0.07122 -0.156792,-0.08495 -0.226921,-0.03234 z" class="UnoptimicedTransforms" transform="matrix(0.92225932,0,0,0.99063318,-86.972727,-11.942057)"/><path style="fill:#000;fill-opacity:.601036;stroke:none;stroke-width:0;stroke-linecap:butt;stroke-linejoin:miter;stroke-opacity:1;stroke-dasharray:none" id="path9117-0" d="M 3.1770097,1.6907918 C 2.938761,1.7263345 2.7134755,1.8431088 2.5272,2.0072749 c -0.065728,0.057927 -0.056182,0.153175 0.011953,0.2083451 0.091612,0.07418 0.180079,0.1532713 0.2619304,0.2393625 0.060357,0.063483 0.1490857,0.1753041 0.1904424,0.2525038 0.090134,0.1682517 0.1356354,0.360219 0.1702896,0.5519622 0.015579,0.086202 0.09744,0.1473071 0.1850573,0.1481111 C 3.4213331,3.408243 3.4924209,3.345575 3.5081794,3.2593291 3.545547,3.0548182 3.5961667,2.8499026 3.6982866,2.674192 3.742249,2.5985489 3.8352308,2.4902953 3.8968758,2.4279695 3.9716512,2.3523684 4.0506716,2.281171 4.1320807,2.2144343 4.199871,2.1588619 4.2089066,2.0641493 4.1428601,2.0065424 3.9557333,1.8433272 3.731693,1.7261059 3.4933447,1.6906448 3.4067382,1.6777596 3.2636384,1.6778683 3.1770097,1.6907918 Z"/><path id="path22669" d="m 98.899099,14.399996 c -0.0948,0.07112 -0.186169,0.147241 -0.271051,0.22973 -0.06283,0.06106 -0.155683,0.169668 -0.197594,0.246539 -0.08294,0.152135 -0.123595,0.324485 -0.157909,0.495756 -0.0172,0.08586 0.03965,0.167468 0.124058,0.191021 0.138523,0.03865 0.274946,0.08997 0.416104,0.110381 0.08306,0.01201 0.224804,0.0027 0.30411,-0.03373 0.07085,-0.03254 0.134753,-0.08154 0.184554,-0.141481 0.05575,-0.0671 0.101828,-0.205087 0.105941,-0.292455 0.008,-0.169024 -0.0447,-0.338683 -0.117818,-0.49398 -0.03732,-0.07927 -0.108694,-0.202506 -0.159519,-0.273912 -0.0013,-0.0018 -0.0026,-0.0037 -0.004,-0.0055 -0.05109,-0.07122 -0.156792,-0.08495 -0.226921,-0.03234 z" class="UnoptimicedTransforms" style="fill:#000;fill-opacity:.601036;stroke:none;stroke-width:0;stroke-linecap:butt;stroke-linejoin:miter;stroke-opacity:1;stroke-dasharray:none" transform="matrix(-0.92223497,0.0071992,0.00670231,0.99060702,93.534806,-12.646592)"/></g><path style="display:none;fill:none;stroke:#fff;stroke-width:.15;stroke-linecap:butt;stroke-linejoin:miter;stroke-dasharray:none;stroke-opacity:1" id="path12560" d="m 2.255392,2.1261369 c 0,0 0.3816279,0.058009 0.7184772,0.4111498 0.3368494,0.3531412 0.4650372,0.5947858 0.4641801,0.9462086"/><path style="display:none;fill:none;stroke:#fff;stroke-width:.15;stroke-linecap:butt;stroke-linejoin:miter;stroke-dasharray:none;stroke-opacity:1" id="path19284" d="m 2.4600202,1.9087554 c 0,0 -0.1052835,0.3104692 0.5005058,0.6168383 0.6057894,0.306369 0.4783804,0.811107 0.4775233,0.9579016"/><path style="display:none;fill:none;stroke:#fff;stroke-width:.15;stroke-linecap:butt;stroke-linejoin:miter;stroke-dasharray:none;stroke-opacity:1" id="path19286" d="m 2.2781192,2.1402659 c 0,0 0.6496426,0.2847632 0.6579108,0.6696805 C 2.9443,3.1948636 2.7800679,3.5276998 2.7419591,3.6062206 m 1.6503192,-1.458438 c 0,0 -0.6516511,0.2801366 -0.6626561,0.6649854 -0.011007,0.3848486 0.1508543,0.7188442 0.1884038,0.797634" class="UnoptimicedTransforms"/></svg>