<svg xmlns="http://www.w3.org/2000/svg" xmlns:svg="http://www.w3.org/2000/svg" id="svg5" width="22.767" height="16.23" version="1.1" viewBox="0 0 6.024 4.294" xml:space="preserve"><g id="g3088" transform="rotate(152.51695,53.914281,-2.0496921)" style="opacity:1;fill:none;fill-opacity:.601036;stroke:#000;stroke-width:.002;stroke-dasharray:none;stroke-opacity:1"><g id="g91" transform="matrix(0.26458333,0,0,0.26458334,103.65722,19.047625)" style="fill:none;fill-opacity:.601036;stroke:#000;stroke-width:.00755906;stroke-dasharray:none;stroke-opacity:1"><path d="M 0,0 C 0,0.96 -0.96,1.92 -1.92,1.92 -3.04,1.92 -4,0.96 -4,0 -4,-1.12 -3.04,-2.08 -1.92,-2.08 -0.96,-2.08 0,-1.12 0,0 Z" style="fill:none;fill-opacity:.601036;fill-rule:nonzero;stroke:#000;stroke-width:.00755906;stroke-dasharray:none;stroke-opacity:1" id="path93"/><path d="M 0,0 C 0,0.96 -0.96,1.92 -1.92,1.92 -3.04,1.92 -4,0.96 -4,0 -4,-1.12 -3.04,-2.08 -1.92,-2.08 -0.96,-2.08 0,-1.12 0,0 Z" style="opacity:1;fill:none;fill-opacity:.601036;stroke:#000;stroke-width:.00755906;stroke-dasharray:none;stroke-opacity:1;fill-rule:nonzero" id="path89" transform="translate(-2.1017042e-8,-7.6799995)"/><path d="M 0,0 C 0,0.96 -0.96,1.92 -1.92,1.92 -3.04,1.92 -4,0.96 -4,0 -4,-1.12 -3.04,-2.08 -1.92,-2.08 -0.96,-2.08 0,-1.12 0,0 Z" style="opacity:1;fill:none;fill-opacity:.601036;stroke:#000;stroke-width:.00755906;stroke-dasharray:none;stroke-opacity:1;fill-rule:nonzero" id="path85" transform="translate(-19.200031,-3.8399998)"/></g></g><path style="fill:#000;fill-opacity:.601036;stroke:none;stroke-width:0;stroke-dasharray:none;paint-order:stroke fill markers" id="path1078" d="m 93.085237,41.839504 c 0,0.54695 -0.292031,0.990341 -0.652269,0.990341 -0.360238,0 -0.652269,-0.443391 -0.652269,-0.990341 0,-0.54695 0.292031,-0.99034 0.652269,-0.99034 0.360238,0 0.652269,0.44339 0.652269,0.99034 z m 0.301475,0.08282 c -0.279439,0.470179 -0.254928,1.000534 0.05475,1.184581 0.309675,0.184048 0.787245,-0.04791 1.066684,-0.518086 0.27944,-0.470179 0.254929,-1.000534 -0.05475,-1.184581 -0.309675,-0.184048 -0.787246,0.04791 -1.066685,0.518086 z" class="UnoptimicedTransforms" transform="matrix(0.72856059,-0.2057224,0.198808,0.78188858,-72.908358,-12.888855)"/><path style="opacity:1;fill:#000;fill-opacity:.601036;stroke:none;stroke-width:0;stroke-dasharray:none;paint-order:stroke fill markers" id="path1078-1-7-1" d="m 56.240921,86.118347 c 0,0.431723 -0.251042,0.781703 -0.560719,0.781703 -0.309676,0 -0.560718,-0.34998 -0.560718,-0.781703 0,-0.431722 0.251042,-0.781703 0.560718,-0.781703 0.309677,0 0.560719,0.349981 0.560719,0.781703 z m 2.238421,2.44102 c -0.430107,-0.03731 -0.800475,0.182541 -0.82724,0.491059 -0.02676,0.308518 0.300209,0.588869 0.730316,0.626182 0.430107,0.03731 0.800475,-0.182541 0.82724,-0.491059 0.02677,-0.308517 -0.300208,-0.588869 -0.730316,-0.626182 z" class="UnoptimicedTransforms" transform="matrix(0.4999764,-0.60629256,0.54461622,0.55998235,-72.908358,-12.888855)"/><g id="g22683" style="display:inline;stroke-width:0;stroke-dasharray:none"><path style="fill:#000;fill-opacity:.601036;stroke:none;stroke-width:0;stroke-linecap:butt;stroke-linejoin:miter;stroke-opacity:1;stroke-dasharray:none" id="path22651" d="m 98.899099,14.399996 c -0.0948,0.07112 -0.186169,0.147241 -0.271051,0.22973 -0.06283,0.06106 -0.155683,0.169668 -0.197594,0.246539 -0.08294,0.152135 -0.123595,0.324485 -0.157909,0.495756 -0.0172,0.08586 0.03965,0.167468 0.124058,0.191021 0.138523,0.03865 0.274946,0.08997 0.416104,0.110381 0.08306,0.01201 0.224804,0.0027 0.30411,-0.03373 0.07085,-0.03254 0.134753,-0.08154 0.184554,-0.141481 0.05575,-0.0671 0.101828,-0.205087 0.105941,-0.292455 0.008,-0.169024 -0.0447,-0.338683 -0.117818,-0.49398 -0.03732,-0.07927 -0.108694,-0.202506 -0.159519,-0.273912 -0.0013,-0.0018 -0.0026,-0.0037 -0.004,-0.0055 -0.05109,-0.07122 -0.156792,-0.08495 -0.226921,-0.03234 z" class="UnoptimicedTransforms" transform="matrix(0.92225932,0,0,0.99063318,-86.972727,-11.942057)"/><path style="fill:#000;fill-opacity:.601036;stroke:none;stroke-width:0;stroke-linecap:butt;stroke-linejoin:miter;stroke-opacity:1;stroke-dasharray:none" id="path9117-0" d="M 3.1770097,1.6907918 C 2.938761,1.7263345 2.7134755,1.8431088 2.5272,2.0072749 c -0.065728,0.057927 -0.056182,0.153175 0.011953,0.2083451 0.091612,0.07418 0.180079,0.1532713 0.2619304,0.2393625 0.060357,0.063483 0.1490857,0.1753041 0.1904424,0.2525038 0.090134,0.1682517 0.1356354,0.360219 0.1702896,0.5519622 0.015579,0.086202 0.09744,0.1473071 0.1850573,0.1481111 C 3.4213331,3.408243 3.4924209,3.345575 3.5081794,3.2593291 3.545547,3.0548182 3.5961667,2.8499026 3.6982866,2.674192 3.742249,2.5985489 3.8352308,2.4902953 3.8968758,2.4279695 3.9716512,2.3523684 4.0506716,2.281171 4.1320807,2.2144343 4.199871,2.1588619 4.2089066,2.0641493 4.1428601,2.0065424 3.9557333,1.8433272 3.731693,1.7261059 3.4933447,1.6906448 3.4067382,1.6777596 3.2636384,1.6778683 3.1770097,1.6907918 Z"/><path id="path22669" d="m 98.899099,14.399996 c -0.0948,0.07112 -0.186169,0.147241 -0.271051,0.22973 -0.06283,0.06106 -0.155683,0.169668 -0.197594,0.246539 -0.08294,0.152135 -0.123595,0.324485 -0.157909,0.495756 -0.0172,0.08586 0.03965,0.167468 0.124058,0.191021 0.138523,0.03865 0.274946,0.08997 0.416104,0.110381 0.08306,0.01201 0.224804,0.0027 0.30411,-0.03373 0.07085,-0.03254 0.134753,-0.08154 0.184554,-0.141481 0.05575,-0.0671 0.101828,-0.205087 0.105941,-0.292455 0.008,-0.169024 -0.0447,-0.338683 -0.117818,-0.49398 -0.03732,-0.07927 -0.108694,-0.202506 -0.159519,-0.273912 -0.0013,-0.0018 -0.0026,-0.0037 -0.004,-0.0055 -0.05109,-0.07122 -0.156792,-0.08495 -0.226921,-0.03234 z" class="UnoptimicedTransforms" style="fill:#000;fill-opacity:.601036;stroke:none;stroke-width:0;stroke-linecap:butt;stroke-linejoin:miter;stroke-opacity:1;stroke-dasharray:none" transform="matrix(-0.92223497,0.0071992,0.00670231,0.99060702,93.534806,-12.646592)"/></g></svg>